<svg width="262" height="262" viewBox="0 0 262 262" fill="none" xmlns="http://www.w3.org/2000/svg" xmlns:xlink="http://www.w3.org/1999/xlink">
<path d="M130.29,229.019C83.108,229.019 48.096,206.039 46.629,205.061C44.217,203.453 43.38,200.301 44.676,197.708L74.022,139.016C75.442,136.177 78.898,135.025 81.738,136.447C82.536,136.847 83.401,137.05 84.306,137.05C87.476,137.05 90.054,134.471 90.054,131.302C90.054,129.11 88.836,127.139 86.874,126.156C84.045,124.738 82.893,121.301 84.298,118.465L125.14,36.015C126.109,34.057 128.105,32.819 130.289,32.818L130.29,32.818C132.474,32.818 134.469,34.055 135.44,36.012L181.844,129.587C182.586,131.083 182.641,132.829 181.992,134.369C181.344,135.91 180.058,137.092 178.469,137.608C173.718,139.15 170.527,143.545 170.527,148.546C170.527,154.885 175.684,160.042 182.023,160.042C184.409,160.042 186.696,159.319 188.636,157.951C190.005,156.985 191.726,156.666 193.351,157.074C194.975,157.483 196.34,158.58 197.089,160.078L215.904,197.708C217.201,200.301 216.363,203.453 213.951,205.061C212.484,206.039 177.473,229.019 130.29,229.019L130.29,229.019ZM57.346,198.073C67.755,203.888 95.834,217.522 130.29,217.522C164.745,217.522 192.821,203.891 203.234,198.072L189.368,170.341C187.023,171.131 184.55,171.538 182.023,171.538C169.345,171.538 159.031,161.224 159.031,148.546C159.031,140.801 162.862,133.781 169.007,129.577L130.293,51.51L96.71,119.305C99.776,122.463 101.55,126.722 101.55,131.302C101.55,140.81 93.814,148.546 84.306,148.546C83.594,148.546 82.882,148.501 82.177,148.413L57.346,198.073Z" transform="rotate(-87.187 130.29 130.918)" fill="#FFFFFF"/>
<path d="M122.628,140.113C113.119,140.113 105.384,132.377 105.384,122.869C105.384,113.36 113.119,105.625 122.628,105.625C132.136,105.625 139.872,113.36 139.872,122.869C139.872,132.377 132.136,140.113 122.628,140.113ZM122.628,117.121C119.458,117.121 116.88,119.699 116.88,122.869C116.88,126.038 119.458,128.617 122.628,128.617C125.797,128.617 128.376,126.038 128.376,122.869C128.376,119.699 125.797,117.121 122.628,117.121Z" transform="rotate(-87.187 122.628 122.869)" fill="#FFFFFF"/>
<path d="M153.737,203.545C141.059,203.545 130.744,193.231 130.744,180.553C130.744,167.875 141.059,157.561 153.737,157.561C166.415,157.561 176.729,167.875 176.729,180.553C176.729,193.231 166.415,203.545 153.737,203.545ZM153.737,169.057C147.398,169.057 142.24,174.214 142.24,180.553C142.24,186.892 147.398,192.049 153.737,192.049C160.076,192.049 165.233,186.892 165.233,180.553C165.233,174.214 160.076,169.057 153.737,169.057Z" transform="rotate(-87.187 153.737 180.553)" fill="#FFFFFF"/>
<path d="M203.494,146.865C206.669,146.865 209.242,144.292 209.242,141.117C209.242,137.943 206.669,135.369 203.494,135.369C200.32,135.369 197.746,137.943 197.746,141.117C197.746,144.292 200.32,146.865 203.494,146.865Z" transform="rotate(-87.187 203.494 141.117)" fill="#FFFFFF"/>
<path d="M154.735,145.668C157.909,145.668 160.483,143.095 160.483,139.92C160.483,136.745 157.909,134.172 154.735,134.172C151.56,134.172 148.987,136.745 148.987,139.92C148.987,143.095 151.56,145.668 154.735,145.668Z" transform="rotate(-87.187 154.735 139.92)" fill="#FFFFFF"/>
<path d="M98.847,103.638C102.021,103.638 104.595,101.065 104.595,97.89C104.595,94.716 102.021,92.142 98.847,92.142C95.672,92.142 93.099,94.716 93.099,97.89C93.099,101.065 95.672,103.638 98.847,103.638Z" transform="rotate(-87.187 98.847 97.89)" fill="#FFFFFF"/>
</svg>
