<svg width="266" height="266" viewBox="0 0 266 266" fill="none" xmlns="http://www.w3.org/2000/svg" xmlns:xlink="http://www.w3.org/1999/xlink">
<path d="M132.826,232.927C84.74,232.927 49.059,209.508 47.563,208.511C45.105,206.872 44.252,203.659 45.573,201.017L75.481,141.202C76.928,138.308 80.45,137.134 83.344,138.584C84.158,138.991 85.039,139.198 85.962,139.198C89.192,139.198 91.82,136.57 91.82,133.34C91.82,131.107 90.578,129.097 88.579,128.096C85.695,126.651 84.522,123.148 85.953,120.258L127.577,36.229C128.565,34.234 130.599,32.972 132.825,32.971L132.826,32.971C135.051,32.971 137.085,34.232 138.074,36.227L185.366,131.592C186.123,133.118 186.178,134.897 185.517,136.466C184.857,138.036 183.546,139.241 181.926,139.767C177.085,141.338 173.832,145.818 173.832,150.914C173.832,157.374 179.088,162.63 185.549,162.63C187.981,162.63 190.311,161.893 192.288,160.499C193.683,159.515 195.438,159.19 197.093,159.606C198.749,160.023 200.14,161.14 200.903,162.667L220.078,201.017C221.4,203.659 220.546,206.872 218.088,208.511C216.593,209.508 180.911,232.927 132.826,232.927L132.826,232.927ZM58.486,201.389C69.093,207.316 97.71,221.211 132.826,221.211C167.94,221.211 196.554,207.318 207.165,201.388L193.034,173.127C190.645,173.932 188.124,174.346 185.549,174.346C172.628,174.346 162.116,163.835 162.116,150.914C162.116,143.021 166.021,135.867 172.283,131.582L132.829,52.021L98.603,121.114C101.728,124.332 103.535,128.672 103.535,133.34C103.535,143.03 95.652,150.914 85.961,150.914C85.236,150.914 84.511,150.868 83.791,150.779L58.486,201.389Z" transform="rotate(90 132.826 132.949)" fill="#FFFFFF"/>
<path d="M140.834,142.514C131.144,142.514 123.26,134.631 123.26,124.94C123.26,115.25 131.144,107.366 140.834,107.366C150.524,107.366 158.408,115.25 158.408,124.94C158.408,134.631 150.524,142.514 140.834,142.514ZM140.834,119.082C137.604,119.082 134.976,121.71 134.976,124.94C134.976,128.17 137.604,130.798 140.834,130.798C144.064,130.798 146.692,128.17 146.692,124.94C146.692,121.71 144.064,119.082 140.834,119.082Z" transform="rotate(90 140.834 124.94)" fill="#FFFFFF"/>
<path d="M82.842,181.511C69.921,181.511 59.409,170.999 59.409,158.079C59.409,145.158 69.921,134.646 82.842,134.646C95.762,134.646 106.274,145.158 106.274,158.079C106.274,170.999 95.762,181.511 82.842,181.511ZM82.842,146.363C76.381,146.363 71.125,151.618 71.125,158.079C71.125,164.539 76.381,169.795 82.842,169.795C89.302,169.795 94.558,164.539 94.558,158.079C94.558,151.618 89.302,146.363 82.842,146.363Z" transform="rotate(90 82.842 158.079)" fill="#FFFFFF"/>
<path d="M124.264,213.644C127.499,213.644 130.122,211.021 130.122,207.786C130.122,204.551 127.499,201.928 124.264,201.928C121.029,201.928 118.406,204.551 118.406,207.786C118.406,211.021 121.029,213.644 124.264,213.644Z" transform="rotate(90 124.264 207.786)" fill="#FFFFFF"/>
<path d="M124.264,163.937C127.499,163.937 130.122,161.314 130.122,158.079C130.122,154.844 127.499,152.221 124.264,152.221C121.029,152.221 118.406,154.844 118.406,158.079C118.406,161.314 121.029,163.937 124.264,163.937Z" transform="rotate(90 124.264 158.079)" fill="#FFFFFF"/>
<path d="M165.688,105.945C168.923,105.945 171.546,103.322 171.546,100.087C171.546,96.852 168.923,94.229 165.688,94.229C162.452,94.229 159.83,96.852 159.83,100.087C159.83,103.322 162.452,105.945 165.688,105.945Z" transform="rotate(90 165.688 100.087)" fill="#FFFFFF"/>
</svg>
