<svg width="218" height="218" viewBox="0 0 218 218" fill="none" xmlns="http://www.w3.org/2000/svg" xmlns:xlink="http://www.w3.org/1999/xlink">
<path d="M109.132,190.691C69.736,190.691 40.503,171.504 39.277,170.687C37.264,169.344 36.564,166.712 37.647,164.547L62.15,115.541C63.335,113.17 66.221,112.209 68.592,113.396C69.259,113.73 69.98,113.899 70.737,113.899C73.383,113.899 75.536,111.746 75.536,109.1C75.536,107.27 74.519,105.624 72.881,104.803C70.518,103.62 69.557,100.75 70.73,98.382L104.831,29.538C105.641,27.904 107.307,26.87 109.131,26.869L109.132,26.869C110.955,26.869 112.622,27.902 113.432,29.536L152.178,107.668C152.798,108.918 152.843,110.376 152.302,111.662C151.761,112.948 150.687,113.935 149.36,114.365C145.393,115.653 142.728,119.323 142.728,123.498C142.728,128.791 147.034,133.097 152.327,133.097C154.32,133.097 156.229,132.493 157.849,131.352C158.992,130.545 160.429,130.278 161.786,130.619C163.142,130.961 164.282,131.877 164.907,133.128L180.617,164.547C181.7,166.712 181.001,169.344 178.987,170.687C177.762,171.504 148.528,190.691 109.132,190.691L109.132,190.691ZM48.226,164.852C56.917,169.708 80.362,181.092 109.132,181.092C137.9,181.092 161.343,169.71 170.038,164.851L158.46,141.697C156.502,142.356 154.437,142.696 152.327,142.696C141.742,142.696 133.129,134.084 133.129,123.498C133.129,117.031 136.328,111.17 141.459,107.66L109.134,42.476L81.094,99.083C83.654,101.72 85.135,105.276 85.135,109.1C85.135,117.039 78.676,123.498 70.736,123.498C70.142,123.498 69.548,123.461 68.959,123.387L48.226,164.852Z" transform="rotate(272.813 109.132 108.78)" fill="#FFFFFF"/>
<path d="M115.531,129.9C107.592,129.9 101.132,123.44 101.132,115.501C101.132,107.562 107.592,101.103 115.531,101.103C123.47,101.103 129.929,107.562 129.929,115.501C129.929,123.44 123.47,129.9 115.531,129.9ZM115.531,110.702C112.884,110.702 110.731,112.855 110.731,115.501C110.731,118.148 112.884,120.301 115.531,120.301C118.177,120.301 120.33,118.148 120.33,115.501C120.33,112.855 118.177,110.702 115.531,110.702Z" transform="rotate(272.813 115.531 115.501)" fill="#FFFFFF"/>
<path d="M89.555,86.535C78.969,86.535 70.357,77.922 70.357,67.337C70.357,56.751 78.969,48.139 89.555,48.139C100.14,48.139 108.753,56.751 108.753,67.337C108.753,77.922 100.14,86.535 89.555,86.535ZM89.555,57.738C84.262,57.738 79.956,62.044 79.956,67.337C79.956,72.63 84.262,76.936 89.555,76.936C94.848,76.936 99.154,72.63 99.154,67.337C99.154,62.044 94.848,57.738 89.555,57.738Z" transform="rotate(272.813 89.555 67.337)" fill="#FFFFFF"/>
<path d="M48.01,105.064C50.66,105.064 52.809,102.915 52.809,100.264C52.809,97.614 50.66,95.465 48.01,95.465C45.359,95.465 43.21,97.614 43.21,100.264C43.21,102.915 45.359,105.064 48.01,105.064Z" transform="rotate(272.813 48.01 100.264)" fill="#FFFFFF"/>
<path d="M88.722,106.063C91.373,106.063 93.522,103.914 93.522,101.264C93.522,98.613 91.373,96.464 88.722,96.464C86.071,96.464 83.923,98.613 83.923,101.264C83.923,103.914 86.071,106.063 88.722,106.063Z" transform="rotate(272.813 88.722 101.264)" fill="#FFFFFF"/>
<path d="M135.386,141.157C138.037,141.157 140.185,139.008 140.185,136.357C140.185,133.707 138.037,131.558 135.386,131.558C132.735,131.558 130.586,133.707 130.586,136.357C130.586,139.008 132.735,141.157 135.386,141.157Z" transform="rotate(272.813 135.386 136.357)" fill="#FFFFFF"/>
</svg>
