<svg width="162" height="162" viewBox="0 0 162 162" fill="none" xmlns="http://www.w3.org/2000/svg" xmlns:xlink="http://www.w3.org/1999/xlink">
<path d="M51.586,118.845C51.432,116.2 51.354,114.871 53.542,112.804C55.73,110.737 57.136,110.811 59.936,110.957C63.482,111.142 68.34,111.395 73.501,106.519C78.662,101.643 78.394,97.054 78.198,93.703C78.044,91.057 77.966,89.729 80.154,87.662C82.342,85.595 83.748,85.668 86.548,85.814C90.095,85.999 94.952,86.252 100.113,81.376C105.274,76.5 105.006,71.911 104.811,68.56C104.656,65.914 104.579,64.586 106.767,62.519C108.955,60.452 110.36,60.525 113.161,60.671C116.707,60.856 121.565,61.109 126.726,56.234C131.887,51.357 131.619,46.768 131.423,43.417C131.269,40.772 131.191,39.443 133.379,37.376C135.216,35.641 135.216,32.827 133.379,31.091C131.542,29.355 128.563,29.355 126.726,31.091C121.565,35.967 121.833,40.556 122.028,43.907C122.183,46.553 122.261,47.881 120.073,49.948C117.885,52.015 116.479,51.942 113.679,51.796C110.132,51.611 105.275,51.358 100.114,56.234C94.952,61.109 95.22,65.699 95.416,69.05C95.571,71.695 95.648,73.024 93.46,75.091C91.273,77.158 89.867,77.084 87.067,76.938C83.519,76.753 78.662,76.5 73.501,81.376C68.34,86.252 68.608,90.841 68.804,94.192C68.959,96.838 69.036,98.166 66.848,100.233C64.66,102.3 63.255,102.227 60.454,102.081C56.907,101.896 52.05,101.643 46.889,106.519C41.728,111.395 41.996,115.984 42.192,119.335C42.346,121.981 42.424,123.309 40.236,125.376C38.048,127.443 36.643,127.369 33.842,127.223C30.294,127.038 25.437,126.785 20.276,131.661C18.439,133.397 18.439,136.211 20.276,137.947C22.113,139.682 25.092,139.683 26.929,137.947C29.117,135.88 30.524,135.953 33.323,136.099C36.87,136.284 41.728,136.537 46.888,131.661C52.05,126.786 51.782,122.196 51.586,118.845Z" transform="rotate(-180 76.828 84.519)" fill="#FFFFFF"/>
<path d="M157.526,40.491C159.941,31.644 157.496,21.848 150.178,14.933C142.859,8.018 132.489,5.708 123.125,7.99C110.274,3.343 96.65,4.719 81.537,12.187C69.559,18.106 56.408,28.017 40.148,43.378C23.872,58.755 13.36,71.2 7.064,82.544C2.1,91.489 -0.281,99.874 -0.219,107.867C-0.182,112.678 0.7,117.346 2.547,121.907C0.132,130.754 2.577,140.551 9.896,147.465C17.227,154.392 27.56,156.724 36.979,154.42C41.879,156.187 46.894,157.075 52.066,157.075C60.44,157.074 69.221,154.754 78.578,150.098C90.685,144.073 103.455,134.422 119.985,118.805C136.499,103.204 146.692,91.159 153.037,79.75C160.97,65.488 162.442,52.627 157.526,40.491L157.526,40.491ZM15.397,86.672C21.238,76.147 31.217,64.387 46.801,49.664C62.366,34.958 74.789,25.553 85.898,20.064C94.916,15.608 103.178,13.713 110.9,14.357C110.031,15.129 9.965,109.676 9.294,110.35C8.625,103.048 10.651,95.224 15.397,86.672L15.397,86.672ZM16.549,141.18C9.212,134.248 9.212,122.969 16.549,116.037L116.912,21.219C124.249,14.287 136.187,14.287 143.525,21.219C150.862,28.15 150.862,39.429 143.525,46.361L43.161,141.18C35.807,148.128 23.904,148.129 16.549,141.18L16.549,141.18ZM144.708,75.615C138.903,86.054 128.933,97.781 113.332,112.52C97.713,127.277 85.276,136.718 74.194,142.233C65.164,146.726 56.901,148.651 49.188,148.029C49.908,147.389 150.021,52.811 150.782,52.046C151.452,59.327 149.435,67.116 144.708,75.615L144.708,75.615Z" transform="rotate(-180 80.069 81.19)" fill="#FFFFFF"/>
</svg>
