<svg width="172" height="162" viewBox="0 0 172 162" fill="none" xmlns="http://www.w3.org/2000/svg" xmlns:xlink="http://www.w3.org/1999/xlink">
<path d="M95.258,-0.082C53.784,-0.082 20.214,31.693 20.214,70.964C20.214,85.106 24.552,98.616 32.626,110.136L3.64,137.331C-2.212,142.871 -2.212,151.886 3.64,157.426C9.508,162.982 19.029,162.951 24.848,157.443L53.845,130.237C66.022,137.896 80.305,142.01 95.257,142.01C136.732,142.01 170.301,110.235 170.301,70.964C170.302,31.698 136.738,-0.082 95.258,-0.082L95.258,-0.082ZM17.79,150.728C15.84,152.575 12.666,152.575 10.715,150.728C8.765,148.881 8.765,145.876 10.698,144.046L38.757,117.72C39.859,118.91 41.002,120.073 42.194,121.201C43.374,122.318 44.588,123.389 45.83,124.421L17.79,150.728ZM95.258,132.538C59.396,132.538 30.22,104.916 30.22,70.964C30.22,37.012 59.396,9.39 95.258,9.39C131.12,9.39 160.296,37.012 160.296,70.964C160.296,104.916 131.12,132.538 95.258,132.538Z" fill="#FFFFFF"/>
<path d="M150.29,70.964C150.29,66.234 148.435,61.774 145.111,58.317C146.165,53.75 145.415,49.01 142.917,44.914C140.42,40.817 136.458,37.832 131.753,36.412C130.253,31.958 127.1,28.208 122.773,25.843C118.448,23.479 113.442,22.769 108.616,23.766C104.965,20.618 100.254,18.863 95.257,18.863C90.262,18.863 85.55,20.618 81.899,23.766C77.074,22.769 72.067,23.479 67.741,25.843C63.415,28.208 60.262,31.958 58.762,36.412C54.058,37.832 50.096,40.817 47.598,44.914C45.101,49.009 44.351,53.749 45.404,58.317C42.08,61.774 40.225,66.234 40.225,70.964C40.225,75.693 42.08,80.154 45.404,83.611C44.351,88.178 45.101,92.918 47.598,97.014C50.096,101.11 54.058,104.095 58.762,105.515C60.262,109.969 63.415,113.719 67.742,116.085C72.068,118.449 77.075,119.159 81.899,118.161C85.55,121.309 90.261,123.064 95.257,123.064C100.253,123.064 104.964,121.309 108.616,118.162C113.442,119.159 118.448,118.449 122.774,116.085C127.1,113.719 130.253,109.969 131.753,105.516C136.458,104.096 140.419,101.111 142.917,97.014C145.415,92.918 146.165,88.178 145.111,83.611C148.435,80.154 150.29,75.694 150.29,70.964L150.29,70.964ZM136.352,78.419C134.572,79.722 133.931,81.99 134.784,83.961C135.981,86.728 135.787,89.759 134.251,92.278C132.715,94.797 130.04,96.472 126.91,96.873C124.68,97.159 122.927,98.819 122.624,100.93C122.2,103.893 120.43,106.427 117.77,107.881C115.111,109.335 111.909,109.519 108.985,108.385C106.903,107.578 104.509,108.186 103.132,109.87C101.199,112.235 98.329,113.592 95.257,113.592C92.185,113.592 89.315,112.236 87.382,109.87C85.998,108.177 83.6,107.582 81.529,108.385C78.605,109.519 75.403,109.335 72.744,107.882C70.084,106.427 68.315,103.894 67.891,100.931C67.588,98.82 65.835,97.16 63.605,96.874C60.475,96.472 57.799,94.797 56.263,92.279C54.727,89.76 54.533,86.729 55.73,83.961C56.583,81.99 55.941,79.723 54.162,78.42C51.663,76.59 50.231,73.873 50.231,70.965C50.231,68.056 51.663,65.339 54.162,63.509C55.941,62.206 56.583,59.938 55.73,57.967C54.533,55.2 54.727,52.169 56.263,49.651C57.799,47.132 60.475,45.457 63.605,45.055C65.835,44.769 67.588,43.109 67.891,40.998C68.315,38.035 70.084,35.502 72.744,34.048C75.404,32.594 78.606,32.41 81.529,33.544C83.612,34.351 86.006,33.743 87.383,32.058C89.315,29.693 92.185,28.336 95.257,28.336C98.329,28.336 101.199,29.693 103.132,32.059C104.509,33.743 106.904,34.351 108.985,33.544C111.909,32.41 115.11,32.594 117.77,34.047C120.43,35.502 122.2,38.035 122.624,40.998C122.927,43.109 124.68,44.769 126.91,45.055C130.04,45.457 132.716,47.131 134.252,49.65C135.787,52.169 135.982,55.2 134.784,57.967C133.931,59.938 134.573,62.205 136.352,63.509C138.851,65.338 140.284,68.056 140.284,70.964C140.284,73.872 138.851,76.589 136.352,78.419L136.352,78.419Z" fill="#FFFFFF"/>
<path d="M118.807,58.142C116.853,56.292 113.685,56.292 111.731,58.142C109.778,59.992 109.778,62.991 111.731,64.84L121.737,74.313C123.691,76.163 126.859,76.163 128.812,74.313C130.766,72.463 130.766,69.465 128.812,67.615L118.807,58.142Z" fill="#FFFFFF"/>
<path d="M88.79,70.39C86.836,72.24 86.836,75.238 88.79,77.088C90.741,78.935 90.741,81.94 88.79,83.786C86.839,85.633 83.665,85.633 81.715,83.786C79.761,81.937 76.593,81.937 74.639,83.786C72.686,85.636 72.686,88.635 74.639,90.485C80.491,96.024 90.013,96.025 95.865,90.485C101.717,84.945 101.717,75.93 95.865,70.389C93.911,68.54 90.743,68.54 88.79,70.39L88.79,70.39Z" fill="#FFFFFF"/>
<path d="M91.72,39.196L81.715,48.669C79.761,50.519 79.761,53.518 81.715,55.367C83.668,57.217 86.836,57.217 88.79,55.367L98.796,45.895C100.749,44.045 100.749,41.046 98.796,39.196C96.842,37.347 93.674,37.347 91.72,39.196Z" fill="#FFFFFF"/>
<path d="M65.24,75.701C68.003,75.701 70.243,73.58 70.243,70.964C70.243,68.349 68.003,66.228 65.24,66.228C62.477,66.228 60.237,68.349 60.237,70.964C60.237,73.58 62.477,75.701 65.24,75.701Z" fill="#FFFFFF"/>
<path d="M115.27,94.646C118.033,94.646 120.273,92.526 120.273,89.91C120.273,87.294 118.033,85.173 115.27,85.173C112.507,85.173 110.267,87.294 110.267,89.91C110.267,92.526 112.507,94.646 115.27,94.646Z" fill="#FFFFFF"/>
</svg>
