<svg width="132" height="126" viewBox="0 0 132 126" fill="none" xmlns="http://www.w3.org/2000/svg" xmlns:xlink="http://www.w3.org/1999/xlink">
<g opacity="0.05">
<path d="M73.208,0.643C41.252,0.643 15.387,25.126 15.387,55.384C15.387,66.28 18.729,76.69 24.951,85.566L2.617,106.519C-1.892,110.788 -1.892,117.734 2.617,122.002C7.138,126.283 14.474,126.259 18.957,122.015L41.3,101.053C50.681,106.955 61.687,110.125 73.207,110.125C105.163,110.125 131.028,85.642 131.028,55.384C131.028,25.13 105.167,0.643 73.208,0.643L73.208,0.643ZM13.52,116.841C12.017,118.264 9.571,118.264 8.068,116.841C6.565,115.418 6.565,113.103 8.055,111.693L29.674,91.409C30.523,92.326 31.404,93.222 32.323,94.091C33.231,94.952 34.167,95.777 35.124,96.572L13.52,116.841ZM73.208,102.826C45.576,102.826 23.097,81.544 23.097,55.384C23.097,29.225 45.576,7.942 73.208,7.942C100.839,7.942 123.319,29.225 123.319,55.384C123.319,81.544 100.839,102.826 73.208,102.826Z" transform="rotate(360 65.131 62.924)" fill="#FFFFFF"/>
<path d="M99.457,70.465C99.457,66.821 98.028,63.385 95.467,60.721C96.278,57.202 95.701,53.55 93.776,50.394C91.852,47.238 88.8,44.937 85.174,43.843C84.018,40.412 81.589,37.522 78.256,35.7C74.923,33.878 71.066,33.331 67.348,34.1C64.534,31.674 60.904,30.322 57.055,30.322C53.206,30.322 49.576,31.675 46.762,34.1C43.045,33.331 39.187,33.878 35.854,35.7C32.521,37.523 30.092,40.412 28.936,43.843C25.311,44.938 22.259,47.238 20.334,50.394C18.41,53.55 17.832,57.202 18.643,60.721C16.082,63.384 14.653,66.821 14.653,70.465C14.653,74.109 16.082,77.546 18.643,80.21C17.832,83.728 18.41,87.381 20.334,90.537C22.259,93.693 25.311,95.993 28.936,97.087C30.092,100.519 32.521,103.408 35.854,105.23C39.188,107.052 43.045,107.599 46.762,106.831C49.576,109.256 53.205,110.608 57.055,110.608C60.904,110.608 64.534,109.256 67.348,106.831C71.066,107.599 74.923,107.052 78.256,105.23C81.589,103.408 84.018,100.519 85.174,97.087C88.8,95.993 91.851,93.693 93.776,90.537C95.7,87.381 96.278,83.729 95.467,80.21C98.028,77.546 99.457,74.11 99.457,70.465L99.457,70.465ZM88.718,76.209C87.347,77.213 86.852,78.961 87.51,80.48C88.432,82.612 88.283,84.947 87.099,86.888C85.916,88.828 83.854,90.119 81.443,90.428C79.725,90.649 78.374,91.928 78.141,93.554C77.814,95.837 76.45,97.789 74.4,98.91C72.352,100.03 69.885,100.171 67.632,99.298C66.028,98.676 64.183,99.144 63.122,100.442C61.633,102.265 59.421,103.31 57.054,103.31C54.688,103.31 52.476,102.265 50.987,100.442C49.921,99.137 48.073,98.68 46.477,99.298C44.225,100.171 41.757,100.03 39.709,98.91C37.659,97.79 36.296,95.838 35.969,93.555C35.736,91.928 34.385,90.649 32.667,90.429C30.255,90.119 28.193,88.829 27.01,86.888C25.827,84.948 25.677,82.612 26.6,80.48C27.257,78.961 26.762,77.214 25.391,76.21C23.466,74.8 22.362,72.707 22.362,70.466C22.362,68.225 23.466,66.131 25.391,64.722C26.762,63.717 27.257,61.97 26.6,60.452C25.677,58.32 25.827,55.984 27.01,54.044C28.193,52.103 30.255,50.813 32.667,50.503C34.385,50.282 35.736,49.003 35.969,47.377C36.296,45.094 37.659,43.142 39.708,42.022C41.758,40.901 44.225,40.76 46.477,41.633C48.082,42.256 49.927,41.787 50.987,40.489C52.476,38.667 54.688,37.621 57.055,37.621C59.421,37.621 61.633,38.666 63.122,40.489C64.183,41.787 66.028,42.255 67.632,41.633C69.885,40.76 72.351,40.901 74.4,42.021C76.45,43.142 77.814,45.094 78.141,47.377C78.374,49.003 79.725,50.282 81.443,50.503C83.855,50.812 85.916,52.103 87.099,54.043C88.283,55.984 88.432,58.32 87.51,60.451C86.852,61.97 87.347,63.717 88.718,64.721C90.643,66.131 91.747,68.225 91.747,70.465C91.747,72.706 90.643,74.8 88.718,76.209L88.718,76.209Z" transform="rotate(360 57.055 70.465)" fill="#FFFFFF"/>
<path d="M36.653,67.884C35.147,66.459 32.707,66.459 31.201,67.884C29.696,69.309 29.696,71.62 31.201,73.045L38.911,80.344C40.416,81.769 42.857,81.769 44.362,80.344C45.867,78.919 45.867,76.608 44.362,75.183L36.653,67.884Z" transform="rotate(360 37.782 74.114)" fill="#FFFFFF"/>
<path d="M65.237,53.292C63.732,54.717 63.732,57.028 65.237,58.453C66.74,59.876 66.74,62.191 65.237,63.614C63.734,65.037 61.289,65.037 59.785,63.614C58.28,62.189 55.84,62.189 54.334,63.614C52.829,65.039 52.829,67.35 54.334,68.775C58.843,73.043 66.179,73.044 70.688,68.775C75.197,64.506 75.197,57.561 70.688,53.292C69.183,51.867 66.742,51.867 65.237,53.292L65.237,53.292Z" transform="rotate(360 63.638 62.1)" fill="#FFFFFF"/>
<path d="M62.038,82.482L54.329,89.78C52.824,91.206 52.824,93.516 54.329,94.941C55.834,96.366 58.275,96.367 59.78,94.941L67.489,87.643C68.995,86.217 68.995,83.907 67.489,82.482C65.984,81.057 63.543,81.057 62.038,82.482Z" transform="rotate(360 60.909 88.712)" fill="#FFFFFF"/>
<path d="M80.183,74.114C82.312,74.114 84.038,72.48 84.038,70.465C84.038,68.449 82.312,66.815 80.183,66.815C78.054,66.815 76.329,68.449 76.329,70.465C76.329,72.48 78.054,74.114 80.183,74.114Z" transform="rotate(360 80.183 70.465)" fill="#FFFFFF"/>
<path d="M41.636,59.516C43.765,59.516 45.491,57.883 45.491,55.867C45.491,53.852 43.765,52.218 41.636,52.218C39.507,52.218 37.782,53.852 37.782,55.867C37.782,57.883 39.507,59.516 41.636,59.516Z" transform="rotate(360 41.636 55.867)" fill="#FFFFFF"/>
</g>
</svg>
