<svg width="158" height="150" viewBox="0 0 158 150" fill="none" xmlns="http://www.w3.org/2000/svg" xmlns:xlink="http://www.w3.org/1999/xlink">
<g opacity="0.05">
<path d="M88.37,-0.359C50.098,-0.359 19.121,28.963 19.121,65.201C19.121,78.251 23.124,90.718 30.575,101.349L3.826,126.443C-1.573,131.555 -1.573,139.874 3.826,144.986C9.241,150.113 18.028,150.084 23.397,145.002L50.155,119.897C61.391,126.965 74.572,130.761 88.369,130.761C126.641,130.761 157.617,101.439 157.617,65.201C157.618,28.968 126.646,-0.359 88.37,-0.359L88.37,-0.359ZM16.885,138.805C15.085,140.509 12.156,140.509 10.356,138.805C8.556,137.101 8.556,134.328 10.339,132.639L36.232,108.347C37.249,109.444 38.304,110.517 39.404,111.559C40.492,112.589 41.613,113.577 42.759,114.53L16.885,138.805ZM88.37,122.02C55.277,122.02 28.354,96.531 28.354,65.201C28.354,33.872 55.277,8.383 88.37,8.383C121.462,8.383 148.385,33.872 148.385,65.201C148.385,96.531 121.462,122.02 88.37,122.02Z" fill="#FFFFFF"/>
<path d="M139.152,65.201C139.152,60.836 137.441,56.721 134.373,53.531C135.346,49.316 134.654,44.942 132.349,41.163C130.044,37.382 126.389,34.628 122.047,33.317C120.662,29.207 117.753,25.747 113.761,23.565C109.769,21.383 105.15,20.728 100.697,21.648C97.327,18.743 92.98,17.123 88.37,17.123C83.759,17.123 79.412,18.743 76.043,21.648C71.591,20.727 66.97,21.383 62.978,23.565C58.986,25.747 56.077,29.207 54.693,33.317C50.352,34.628 46.696,37.382 44.391,41.162C42.086,44.942 41.395,49.316 42.366,53.53C39.299,56.72 37.587,60.836 37.587,65.201C37.587,69.565 39.299,73.681 42.366,76.871C41.395,81.085 42.086,85.46 44.391,89.239C46.696,93.019 50.352,95.774 54.693,97.084C56.077,101.194 58.986,104.654 62.979,106.837C66.971,109.019 71.591,109.674 76.042,108.754C79.412,111.658 83.759,113.278 88.37,113.278C92.98,113.278 97.327,111.658 100.697,108.754C105.15,109.674 109.769,109.019 113.761,106.837C117.753,104.655 120.662,101.194 122.047,97.084C126.389,95.774 130.044,93.02 132.348,89.24C134.653,85.46 135.346,81.086 134.373,76.871C137.441,73.681 139.152,69.566 139.152,65.201L139.152,65.201ZM126.291,72.08C124.648,73.283 124.056,75.376 124.843,77.194C125.948,79.748 125.769,82.545 124.352,84.869C122.935,87.193 120.466,88.739 117.578,89.109C115.52,89.373 113.902,90.905 113.623,92.853C113.231,95.587 111.598,97.925 109.143,99.267C106.69,100.609 103.735,100.778 101.037,99.732C99.116,98.987 96.906,99.548 95.636,101.103C93.852,103.285 91.204,104.537 88.369,104.537C85.534,104.537 82.886,103.286 81.102,101.103C79.826,99.54 77.612,98.991 75.701,99.732C73.004,100.778 70.049,100.609 67.595,99.268C65.14,97.926 63.508,95.588 63.116,92.854C62.837,90.906 61.219,89.374 59.162,89.11C56.273,88.739 53.804,87.194 52.387,84.87C50.97,82.546 50.79,79.748 51.895,77.195C52.682,75.376 52.09,73.284 50.448,72.081C48.142,70.393 46.82,67.885 46.82,65.202C46.82,62.518 48.142,60.01 50.448,58.322C52.09,57.119 52.682,55.027 51.895,53.208C50.79,50.655 50.97,47.857 52.386,45.534C53.804,43.209 56.273,41.664 59.162,41.293C61.219,41.029 62.837,39.497 63.116,37.549C63.508,34.815 65.14,32.478 67.595,31.135C70.049,29.794 73.004,29.625 75.701,30.67C77.623,31.416 79.833,30.855 81.103,29.3C82.886,27.117 85.535,25.865 88.369,25.865C91.204,25.865 93.853,27.117 95.636,29.3C96.906,30.854 99.116,31.415 101.037,30.67C103.736,29.624 106.689,29.794 109.143,31.135C111.599,32.477 113.231,34.815 113.623,37.549C113.902,39.497 115.52,41.029 117.578,41.293C120.466,41.664 122.935,43.209 124.352,45.533C125.769,47.857 125.949,50.655 124.844,53.207C124.057,55.026 124.649,57.119 126.291,58.322C128.596,60.01 129.919,62.517 129.919,65.201C129.919,67.885 128.596,70.392 126.291,72.08L126.291,72.08Z" fill="#FFFFFF"/>
<path d="M110.099,53.37C108.297,51.663 105.374,51.663 103.571,53.37C101.768,55.076 101.768,57.844 103.571,59.551L112.804,68.292C114.606,69.999 117.53,69.999 119.332,68.292C121.135,66.585 121.135,63.818 119.332,62.111L110.099,53.37Z" fill="#FFFFFF"/>
<path d="M82.401,64.671C80.598,66.378 80.598,69.145 82.401,70.852C84.201,72.557 84.201,75.329 82.401,77.033C80.601,78.738 77.672,78.738 75.872,77.033C74.069,75.327 71.146,75.327 69.343,77.033C67.541,78.74 67.541,81.507 69.343,83.214C74.743,88.326 83.53,88.327 88.93,83.214C94.33,78.102 94.33,69.784 88.93,64.671C87.127,62.964 84.204,62.964 82.401,64.671L82.401,64.671Z" fill="#FFFFFF"/>
<path d="M85.105,35.887L75.872,44.628C74.069,46.335 74.069,49.102 75.872,50.809C77.675,52.516 80.598,52.516 82.401,50.809L91.634,42.068C93.437,40.361 93.437,37.594 91.634,35.887C89.831,34.18 86.908,34.18 85.105,35.887Z" fill="#FFFFFF"/>
<path d="M60.67,69.572C63.219,69.572 65.286,67.615 65.286,65.201C65.286,62.787 63.219,60.831 60.67,60.831C58.12,60.831 56.053,62.787 56.053,65.201C56.053,67.615 58.12,69.572 60.67,69.572Z" fill="#FFFFFF"/>
<path d="M106.836,87.055C109.386,87.055 111.453,85.098 111.453,82.684C111.453,80.27 109.386,78.313 106.836,78.313C104.287,78.313 102.22,80.27 102.22,82.684C102.22,85.098 104.287,87.055 106.836,87.055Z" fill="#FFFFFF"/>
</g>
</svg>
