<svg width="134" height="136" viewBox="0 0 134 136" fill="none" xmlns="http://www.w3.org/2000/svg" xmlns:xlink="http://www.w3.org/1999/xlink">
<path d="M47.742,93.704C47.613,91.495 47.548,90.386 49.375,88.661C51.202,86.935 52.375,86.996 54.714,87.118C57.675,87.272 61.731,87.484 66.04,83.412C70.349,79.341 70.126,75.509 69.962,72.711C69.833,70.502 69.768,69.393 71.595,67.667C73.422,65.941 74.596,66.002 76.934,66.124C79.895,66.279 83.951,66.49 88.26,62.419C92.57,58.347 92.346,54.516 92.183,51.718C92.054,49.509 91.989,48.4 93.816,46.674C95.643,44.948 96.817,45.009 99.155,45.131C102.116,45.285 106.172,45.497 110.481,41.425C114.79,37.354 114.567,33.522 114.403,30.724C114.274,28.515 114.21,27.406 116.036,25.68C117.57,24.231 117.57,21.881 116.036,20.432C114.503,18.983 112.015,18.983 110.481,20.432C106.172,24.503 106.396,28.335 106.559,31.133C106.688,33.342 106.753,34.451 104.926,36.177C103.099,37.903 101.925,37.842 99.587,37.72C96.626,37.566 92.57,37.354 88.261,41.425C83.951,45.497 84.175,49.329 84.338,52.127C84.468,54.336 84.532,55.445 82.705,57.171C80.879,58.896 79.705,58.835 77.367,58.713C74.405,58.559 70.349,58.348 66.04,62.419C61.731,66.49 61.955,70.322 62.118,73.12C62.247,75.329 62.312,76.438 60.485,78.164C58.658,79.89 57.485,79.828 55.146,79.707C52.184,79.552 48.129,79.341 43.82,83.412C39.511,87.483 39.734,91.315 39.898,94.113C40.027,96.322 40.091,97.431 38.265,99.157C36.438,100.883 35.264,100.822 32.926,100.7C29.963,100.545 25.908,100.334 21.599,104.405C20.065,105.855 20.065,108.204 21.599,109.654C23.133,111.103 25.62,111.103 27.154,109.654C28.981,107.928 30.155,107.989 32.493,108.111C35.454,108.265 39.51,108.477 43.819,104.405C48.129,100.334 47.905,96.502 47.742,93.704Z" transform="rotate(180 68.818 65.043)" fill="#FFFFFF"/>
<path d="M130.786,33.84C132.803,26.453 130.761,18.273 124.65,12.5C118.539,6.726 109.881,4.797 102.063,6.703C91.332,2.822 79.957,3.972 67.338,10.207C57.336,15.149 46.355,23.424 32.779,36.25C19.189,49.09 10.411,59.481 5.155,68.953C1.01,76.421 -0.978,83.423 -0.927,90.097C-0.896,94.114 -0.159,98.012 1.383,101.82C-0.634,109.207 1.408,117.387 7.519,123.161C13.64,128.944 22.268,130.891 30.132,128.967C34.224,130.443 38.412,131.184 42.73,131.184C49.722,131.184 57.054,129.246 64.867,125.358C74.975,120.328 85.638,112.27 99.44,99.23C113.229,86.203 121.74,76.146 127.038,66.62C133.661,54.712 134.891,43.973 130.786,33.84L130.786,33.84ZM12.113,72.4C16.99,63.611 25.322,53.792 38.334,41.499C51.33,29.22 61.703,21.367 70.978,16.784C78.508,13.064 85.407,11.481 91.855,12.019C91.129,12.663 7.577,91.607 7.017,92.17C6.458,86.073 8.15,79.54 12.113,72.4L12.113,72.4ZM13.074,117.912C6.948,112.124 6.948,102.707 13.074,96.919L96.875,17.748C103.001,11.96 112.969,11.96 119.095,17.748C125.221,23.536 125.221,32.953 119.095,38.741L35.295,117.912C29.155,123.713 19.216,123.714 13.074,117.912L13.074,117.912ZM120.084,63.168C115.236,71.884 106.912,81.675 93.886,93.982C80.844,106.304 70.46,114.187 61.206,118.792C53.667,122.543 46.767,124.15 40.327,123.631C40.928,123.096 124.519,44.127 125.155,43.488C125.714,49.568 124.03,56.071 120.084,63.168L120.084,63.168Z" transform="rotate(180 66.112 67.822)" fill="#FFFFFF"/>
</svg>
