<svg width="144" height="142" viewBox="0 0 144 142" fill="none" xmlns="http://www.w3.org/2000/svg" xmlns:xlink="http://www.w3.org/1999/xlink">
<path d="M80.172,3.05C45.542,3.05 17.512,29.582 17.512,62.372C17.512,74.18 21.134,85.46 27.876,95.08L3.673,117.786C-1.213,122.412 -1.213,129.939 3.673,134.565C8.573,139.204 16.523,139.178 21.381,134.579L45.594,111.863C55.76,118.258 67.687,121.693 80.171,121.693C114.801,121.693 142.831,95.162 142.831,62.372C142.831,29.586 114.806,3.05 80.172,3.05L80.172,3.05ZM15.489,128.972C13.86,130.514 11.21,130.514 9.581,128.972C7.952,127.43 7.952,124.921 9.566,123.393L32.995,101.412C33.915,102.405 34.87,103.376 35.865,104.318C36.85,105.251 37.864,106.145 38.901,107.006L15.489,128.972ZM80.172,113.784C50.228,113.784 25.867,90.721 25.867,62.372C25.867,34.023 50.228,10.96 80.172,10.96C110.115,10.96 134.477,34.023 134.477,62.372C134.477,90.721 110.115,113.784 80.172,113.784Z" transform="rotate(-180 71.42 70.543)" fill="#FFFFFF"/>
<path d="M109.198,61.791C109.198,57.842 107.65,54.118 104.874,51.231C105.754,47.418 105.128,43.46 103.043,40.04C100.957,36.619 97.65,34.127 93.721,32.941C92.468,29.222 89.836,26.091 86.223,24.117C82.611,22.142 78.431,21.55 74.402,22.382C71.353,19.754 67.42,18.288 63.248,18.288C59.077,18.288 55.143,19.754 52.094,22.382C48.065,21.549 43.885,22.142 40.273,24.117C36.66,26.092 34.028,29.222 32.776,32.941C28.847,34.127 25.54,36.619 23.454,40.04C21.368,43.46 20.743,47.417 21.622,51.231C18.846,54.118 17.298,57.842 17.298,61.791C17.298,65.74 18.846,69.464 21.622,72.351C20.743,76.164 21.368,80.122 23.454,83.542C25.54,86.963 28.847,89.455 32.776,90.641C34.028,94.359 36.66,97.49 40.273,99.466C43.885,101.44 48.066,102.033 52.094,101.2C55.143,103.828 59.076,105.294 63.248,105.294C67.419,105.294 71.353,103.828 74.402,101.2C78.431,102.032 82.611,101.44 86.223,99.466C89.836,97.491 92.468,94.36 93.721,90.641C97.649,89.455 100.957,86.963 103.042,83.543C105.128,80.122 105.754,76.165 104.874,72.351C107.65,69.464 109.198,65.74 109.198,61.791L109.198,61.791ZM97.561,68.016C96.075,69.104 95.539,70.998 96.251,72.643C97.251,74.954 97.089,77.485 95.806,79.588C94.524,81.691 92.29,83.089 89.677,83.425C87.815,83.664 86.351,85.05 86.098,86.812C85.744,89.286 84.266,91.402 82.045,92.616C79.825,93.83 77.152,93.983 74.71,93.037C72.972,92.363 70.972,92.87 69.823,94.277C68.209,96.252 65.812,97.385 63.247,97.385C60.683,97.385 58.286,96.252 56.672,94.277C55.517,92.863 53.514,92.366 51.785,93.037C49.344,93.983 46.67,93.83 44.45,92.616C42.229,91.402 40.752,89.287 40.397,86.813C40.145,85.05 38.681,83.664 36.819,83.425C34.206,83.09 31.971,81.691 30.689,79.589C29.407,77.485 29.244,74.954 30.244,72.644C30.956,70.998 30.42,69.105 28.934,68.017C26.848,66.489 25.652,64.22 25.652,61.792C25.652,59.363 26.848,57.094 28.934,55.567C30.42,54.478 30.956,52.585 30.244,50.939C29.244,48.629 29.407,46.098 30.688,43.995C31.971,41.892 34.205,40.494 36.819,40.158C38.681,39.919 40.145,38.533 40.397,36.77C40.752,34.297 42.229,32.181 44.45,30.967C46.671,29.753 49.345,29.6 51.785,30.546C53.524,31.221 55.524,30.713 56.673,29.306C58.286,27.331 60.683,26.198 63.248,26.198C65.813,26.198 68.209,27.331 69.823,29.306C70.972,30.713 72.972,31.22 74.71,30.546C77.152,29.6 79.825,29.753 82.045,30.967C84.267,32.181 85.744,34.296 86.099,36.771C86.351,38.533 87.815,39.919 89.677,40.158C92.29,40.493 94.524,41.892 95.807,43.995C97.089,46.098 97.251,48.629 96.252,50.939C95.539,52.585 96.075,54.478 97.561,55.566C99.647,57.094 100.844,59.363 100.844,61.791C100.844,64.219 99.647,66.488 97.561,68.016L97.561,68.016Z" transform="rotate(-180 63.248 61.791)" fill="#FFFFFF"/>
<path d="M58.07,34.154C56.439,32.609 53.794,32.609 52.163,34.154C50.532,35.698 50.532,38.202 52.163,39.747L60.517,47.656C62.149,49.201 64.794,49.201 66.425,47.656C68.056,46.112 68.056,43.608 66.425,42.063L58.07,34.154Z" transform="rotate(-180 59.294 40.905)" fill="#FFFFFF"/>
<path d="M74.047,59.38C72.415,60.925 72.415,63.429 74.047,64.973C75.676,66.515 75.676,69.024 74.047,70.566C72.418,72.108 69.768,72.108 68.139,70.566C66.508,69.022 63.863,69.022 62.232,70.566C60.6,72.11 60.6,74.614 62.232,76.159C67.117,80.784 75.068,80.785 79.954,76.159C84.841,71.533 84.841,64.006 79.954,59.38C78.323,57.835 75.678,57.835 74.047,59.38L74.047,59.38Z" transform="rotate(-180 72.314 68.925)" fill="#FFFFFF"/>
<path d="M44.698,59.217L36.343,67.127C34.712,68.671 34.712,71.175 36.343,72.72C37.974,74.264 40.619,74.264 42.251,72.72L50.605,64.81C52.237,63.266 52.237,60.762 50.605,59.217C48.974,57.673 46.329,57.673 44.698,59.217Z" transform="rotate(-180 43.474 65.968)" fill="#FFFFFF"/>
<path d="M63.248,90.81C65.555,90.81 67.426,89.039 67.426,86.855C67.426,84.671 65.555,82.9 63.248,82.9C60.941,82.9 59.071,84.671 59.071,86.855C59.071,89.039 60.941,90.81 63.248,90.81Z" transform="rotate(-180 63.248 86.855)" fill="#FFFFFF"/>
<path d="M79.068,49.037C81.375,49.037 83.245,47.266 83.245,45.082C83.245,42.898 81.375,41.127 79.068,41.127C76.761,41.127 74.89,42.898 74.89,45.082C74.89,47.266 76.761,49.037 79.068,49.037Z" transform="rotate(-180 79.068 45.082)" fill="#FFFFFF"/>
</svg>
