<svg width="234" height="228" viewBox="0 0 234 228" fill="none" xmlns="http://www.w3.org/2000/svg" xmlns:xlink="http://www.w3.org/1999/xlink">
<path d="M127.291,27.692C83.045,27.692 47.232,61.591 47.232,103.487C47.232,118.574 51.859,132.987 60.474,145.277L29.55,174.289C23.307,180.199 23.307,189.817 29.55,195.727C35.81,201.654 45.968,201.621 52.175,195.745L83.111,166.721C96.101,174.892 111.339,179.281 127.29,179.281C171.537,179.281 207.349,145.382 207.349,103.486C207.35,61.597 171.543,27.692 127.291,27.692L127.291,27.692ZM44.646,188.581C42.565,190.551 39.179,190.551 37.098,188.581C35.017,186.611 35.017,183.405 37.079,181.453L67.014,153.367C68.189,154.636 69.409,155.877 70.681,157.081C71.939,158.272 73.235,159.415 74.56,160.516L44.646,188.581ZM127.291,169.175C89.032,169.175 57.906,139.707 57.906,103.487C57.906,67.266 89.032,37.798 127.291,37.798C165.55,37.798 196.675,67.266 196.675,103.487C196.675,139.707 165.55,169.175 127.291,169.175Z" transform="rotate(-42.988 116.109 113.927)" fill="#FFFFFF"/>
<path d="M181.398,100.115C181.398,95.069 179.42,90.311 175.874,86.623C176.998,81.75 176.198,76.694 173.533,72.324C170.869,67.954 166.643,64.769 161.623,63.254C160.022,58.503 156.659,54.502 152.043,51.979C147.428,49.457 142.088,48.699 136.94,49.763C133.044,46.405 128.018,44.532 122.688,44.532C117.358,44.532 112.332,46.405 108.437,49.763C103.289,48.699 97.948,49.457 93.333,51.979C88.717,54.502 85.354,58.503 83.754,63.254C78.735,64.769 74.509,67.954 71.843,72.324C69.179,76.693 68.38,81.75 69.503,86.623C65.956,90.311 63.978,95.069 63.978,100.115C63.978,105.161 65.956,109.919 69.503,113.607C68.38,118.48 69.179,123.537 71.844,127.906C74.509,132.277 78.735,135.461 83.754,136.976C85.354,141.727 88.717,145.728 93.333,148.252C97.949,150.774 103.29,151.532 108.436,150.467C112.332,153.825 117.358,155.698 122.688,155.698C128.018,155.698 133.044,153.825 136.94,150.467C142.088,151.531 147.428,150.774 152.043,148.252C156.659,145.728 160.022,141.728 161.623,136.976C166.642,135.461 170.868,132.277 173.533,127.907C176.197,123.537 176.998,118.48 175.874,113.608C179.42,109.919 181.398,105.161 181.398,100.115L181.398,100.115ZM166.529,108.068C164.63,109.459 163.946,111.878 164.856,113.981C166.133,116.933 165.926,120.167 164.287,122.854C162.649,125.541 159.795,127.328 156.456,127.756C154.077,128.061 152.207,129.832 151.884,132.084C151.431,135.245 149.543,137.948 146.705,139.5C143.868,141.051 140.453,141.247 137.333,140.037C135.112,139.176 132.557,139.825 131.088,141.622C129.027,144.145 125.964,145.593 122.687,145.593C119.41,145.593 116.348,144.145 114.286,141.622C112.81,139.815 110.251,139.181 108.042,140.038C104.923,141.247 101.507,141.051 98.67,139.5C95.832,137.949 93.945,135.246 93.492,132.085C93.169,129.833 91.299,128.062 88.92,127.757C85.581,127.328 82.726,125.541 81.088,122.855C79.449,120.168 79.242,116.934 80.519,113.981C81.429,111.879 80.744,109.46 78.846,108.069C76.18,106.118 74.652,103.219 74.652,100.116C74.652,97.013 76.18,94.114 78.846,92.162C80.744,90.772 81.429,88.353 80.519,86.25C79.242,83.298 79.449,80.064 81.087,77.378C82.726,74.69 85.581,72.904 88.92,72.475C91.299,72.17 93.169,70.398 93.492,68.146C93.945,64.986 95.832,62.283 98.67,60.732C101.507,59.181 104.924,58.985 108.042,60.194C110.264,61.056 112.819,60.407 114.287,58.61C116.348,56.086 119.411,54.639 122.688,54.639C125.965,54.639 129.027,56.086 131.089,58.61C132.557,60.407 135.112,61.055 137.333,60.194C140.453,58.985 143.868,59.181 146.705,60.731C149.543,62.283 151.431,64.986 151.884,68.147C152.207,70.398 154.077,72.169 156.456,72.475C159.795,72.903 162.65,74.69 164.288,77.377C165.926,80.064 166.134,83.298 164.856,86.249C163.946,88.352 164.631,90.771 166.529,92.162C169.195,94.114 170.723,97.013 170.723,100.115C170.723,103.218 169.195,106.117 166.529,108.068L166.529,108.068Z" transform="rotate(-42.988 122.688 100.115)" fill="#FFFFFF"/>
<path d="M144.104,77.01C142.02,75.037 138.64,75.037 136.556,77.01C134.471,78.984 134.471,82.183 136.556,84.156L147.23,94.262C149.314,96.235 152.694,96.236 154.778,94.262C156.863,92.289 156.863,89.09 154.778,87.116L144.104,77.01Z" transform="rotate(-42.988 145.667 85.636)" fill="#FFFFFF"/>
<path d="M120.666,102.037C118.582,104.01 118.582,107.21 120.666,109.183C122.747,111.153 122.747,114.359 120.666,116.329C118.585,118.299 115.199,118.299 113.118,116.329C111.033,114.356 107.654,114.356 105.57,116.329C103.486,118.302 103.486,121.501 105.57,123.475C111.812,129.384 121.971,129.385 128.214,123.475C134.457,117.564 134.457,107.947 128.214,102.037C126.13,100.063 122.75,100.063 120.666,102.037L120.666,102.037Z" transform="rotate(-42.988 118.452 114.232)" fill="#FFFFFF"/>
<path d="M110.028,69.937L99.354,80.043C97.27,82.017 97.27,85.216 99.354,87.189C101.438,89.162 104.817,89.162 106.902,87.189L117.576,77.083C119.661,75.11 119.661,71.911 117.576,69.937C115.492,67.964 112.112,67.964 110.028,69.937Z" transform="rotate(-42.988 108.465 78.563)" fill="#FFFFFF"/>
<path d="M92.892,116.902C95.839,116.902 98.229,114.64 98.229,111.849C98.229,109.059 95.839,106.796 92.892,106.796C89.944,106.796 87.554,109.059 87.554,111.849C87.554,114.64 89.944,116.902 92.892,116.902Z" transform="rotate(-42.988 92.892 111.849)" fill="#FFFFFF"/>
<path d="M149.959,116.153C152.907,116.153 155.296,113.89 155.296,111.1C155.296,108.309 152.907,106.047 149.959,106.047C147.011,106.047 144.622,108.309 144.622,111.1C144.622,113.89 147.011,116.153 149.959,116.153Z" transform="rotate(-42.988 149.959 111.1)" fill="#FFFFFF"/>
</svg>
