<svg width="280" height="274" viewBox="0 0 280 274" fill="none" xmlns="http://www.w3.org/2000/svg" xmlns:xlink="http://www.w3.org/1999/xlink">
<path d="M153.026,32.739C100.035,32.739 57.144,73.339 57.144,123.515C57.144,141.584 62.686,158.845 73.003,173.564L35.967,208.311C28.49,215.389 28.49,226.907 35.967,233.985C43.464,241.083 55.63,241.045 63.064,234.007L100.114,199.247C115.671,209.033 133.921,214.29 153.025,214.29C206.017,214.29 248.907,173.69 248.907,123.514C248.909,73.345 206.025,32.739 153.026,32.739L153.026,32.739ZM54.047,225.427C51.555,227.787 47.5,227.787 45.007,225.427C42.515,223.068 42.515,219.229 44.985,216.89L80.836,183.254C82.243,184.774 83.704,186.26 85.228,187.702C86.734,189.129 88.286,190.497 89.873,191.815L54.047,225.427ZM153.026,202.187C107.206,202.187 69.928,166.894 69.928,123.515C69.928,80.135 107.206,44.843 153.026,44.843C198.847,44.843 236.125,80.135 236.125,123.515C236.125,166.894 198.847,202.187 153.026,202.187Z" transform="rotate(317.012 139.634 136.018)" fill="#FFFFFF"/>
<path d="M202.069,152.561C202.069,146.517 199.7,140.819 195.452,136.402C196.798,130.566 195.84,124.51 192.649,119.277C189.458,114.042 184.397,110.228 178.385,108.414C176.468,102.723 172.44,97.932 166.912,94.91C161.385,91.889 154.989,90.982 148.823,92.256C144.158,88.234 138.138,85.992 131.755,85.992C125.372,85.992 119.352,88.235 114.687,92.256C108.522,90.982 102.125,91.889 96.597,94.91C91.07,97.932 87.042,102.723 85.126,108.414C79.115,110.229 74.053,114.042 70.861,119.276C67.67,124.509 66.712,130.566 68.058,136.401C63.81,140.818 61.441,146.517 61.441,152.56C61.441,158.603 63.81,164.302 68.058,168.719C66.712,174.554 67.67,180.611 70.861,185.845C74.053,191.078 79.115,194.892 85.126,196.706C87.042,202.397 91.07,207.188 96.598,210.211C102.126,213.232 108.523,214.139 114.686,212.864C119.352,216.886 125.371,219.129 131.755,219.129C138.138,219.129 144.157,216.886 148.823,212.865C154.989,214.139 161.385,213.232 166.912,210.211C172.44,207.189 176.468,202.397 178.385,196.707C184.396,194.893 189.457,191.079 192.649,185.845C195.84,180.611 196.798,174.555 195.452,168.719C199.7,164.302 202.069,158.604 202.069,152.561L202.069,152.561ZM184.261,162.086C181.987,163.751 181.167,166.649 182.257,169.167C183.787,172.702 183.539,176.575 181.576,179.794C179.614,183.011 176.196,185.151 172.197,185.665C169.348,186.03 167.108,188.151 166.721,190.848C166.179,194.634 163.918,197.871 160.519,199.729C157.121,201.587 153.03,201.821 149.294,200.373C146.634,199.342 143.575,200.118 141.816,202.27C139.346,205.293 135.679,207.026 131.754,207.026C127.829,207.026 124.162,205.293 121.693,202.271C119.925,200.107 116.86,199.347 114.214,200.373C110.479,201.821 106.387,201.587 102.99,199.73C99.591,197.872 97.33,194.635 96.788,190.849C96.402,188.152 94.162,186.031 91.313,185.665C87.314,185.152 83.895,183.012 81.932,179.794C79.97,176.576 79.722,172.703 81.252,169.167C82.341,166.649 81.521,163.752 79.248,162.087C76.055,159.749 74.225,156.278 74.225,152.561C74.225,148.845 76.055,145.374 79.248,143.036C81.521,141.371 82.341,138.473 81.252,135.955C79.722,132.42 79.97,128.546 81.932,125.329C83.894,122.111 87.313,119.971 91.313,119.457C94.162,119.092 96.402,116.97 96.788,114.273C97.33,110.488 99.591,107.251 102.99,105.393C106.388,103.535 110.48,103.301 114.214,104.749C116.875,105.781 119.935,105.004 121.693,102.851C124.162,99.829 127.83,98.096 131.754,98.096C135.679,98.096 139.347,99.829 141.816,102.852C143.575,105.004 146.635,105.78 149.294,104.749C153.031,103.301 157.121,103.535 160.519,105.393C163.918,107.251 166.179,110.488 166.721,114.274C167.108,116.97 169.348,119.091 172.197,119.457C176.196,119.97 179.615,122.11 181.577,125.328C183.539,128.546 183.787,132.419 182.258,135.954C181.167,138.473 181.987,141.37 184.261,143.035C187.454,145.373 189.284,148.845 189.284,152.561C189.284,156.276 187.454,159.748 184.261,162.086L184.261,162.086Z" transform="rotate(317.012 131.755 152.56)" fill="#FFFFFF"/>
<path d="M102.362,159.57C99.866,157.206 95.819,157.206 93.322,159.57C90.826,161.933 90.826,165.765 93.322,168.128L106.106,180.231C108.602,182.595 112.65,182.595 115.146,180.231C117.643,177.868 117.643,174.037 115.146,171.673L102.362,159.57Z" transform="rotate(317.012 104.234 169.901)" fill="#FFFFFF"/>
<path d="M139.481,121.048C136.985,123.411 136.985,127.243 139.481,129.606C141.974,131.966 141.974,135.805 139.481,138.165C136.989,140.524 132.933,140.524 130.441,138.165C127.945,135.802 123.897,135.802 121.401,138.165C118.905,140.528 118.905,144.359 121.401,146.723C128.877,153.8 141.044,153.801 148.521,146.723C155.998,139.644 155.998,128.126 148.521,121.048C146.025,118.684 141.977,118.684 139.481,121.048L139.481,121.048Z" transform="rotate(317.012 136.829 135.653)" fill="#FFFFFF"/>
<path d="M150.661,168.041L137.877,180.145C135.381,182.508 135.381,186.339 137.877,188.703C140.373,191.066 144.42,191.066 146.916,188.703L159.701,176.599C162.197,174.236 162.197,170.405 159.701,168.041C157.205,165.678 153.157,165.678 150.661,168.041Z" transform="rotate(317.012 148.789 178.372)" fill="#FFFFFF"/>
<path d="M167.441,144.558C170.971,144.558 173.833,141.849 173.833,138.507C173.833,135.164 170.971,132.455 167.441,132.455C163.91,132.455 161.048,135.164 161.048,138.507C161.048,141.849 163.91,144.558 167.441,144.558Z" transform="rotate(317.012 167.441 138.507)" fill="#FFFFFF"/>
<path d="M99.094,145.456C102.624,145.456 105.486,142.747 105.486,139.405C105.486,136.062 102.624,133.353 99.094,133.353C95.564,133.353 92.702,136.062 92.702,139.405C92.702,142.747 95.564,145.456 99.094,145.456Z" transform="rotate(317.012 99.094 139.405)" fill="#FFFFFF"/>
</svg>
