<svg width="74" height="74" viewBox="0 0 74 74" fill="none" xmlns="http://www.w3.org/2000/svg" xmlns:xlink="http://www.w3.org/1999/xlink">
<path d="M56.343,23.824C55.868,23.362 55.202,23.153 54.549,23.26C53.896,23.367 53.331,23.777 53.028,24.366C51.985,26.392 50.66,28.254 49.102,29.899C49.257,28.711 49.336,27.515 49.336,26.315C49.336,24.014 49.027,21.647 48.419,19.277C46.418,11.493 41.172,4.91 34.026,1.217C33.403,0.895 32.662,0.907 32.05,1.247C31.438,1.587 31.037,2.211 30.982,2.909C30.425,9.983 26.781,16.418 20.98,20.57C20.903,20.625 20.827,20.681 20.751,20.737C20.593,20.852 20.444,20.962 20.305,21.053C20.283,21.068 20.262,21.083 20.241,21.098C16.592,23.71 13.582,27.192 11.534,31.169C9.454,35.214 8.399,39.555 8.399,44.07C8.399,46.37 8.707,48.738 9.316,51.108C12.525,63.601 23.768,72.327 36.656,72.327C52.236,72.327 64.911,59.651 64.911,44.07C64.911,36.387 61.868,29.196 56.343,23.824L56.343,23.824Z" fill="#FFFFFF"/>
<circle cx="35.575" cy="44.222" r="8.648" fill="#FF5E08"/>
</svg>
