<svg width="186" height="84" viewBox="0 0 186 84" fill="none" xmlns="http://www.w3.org/2000/svg" xmlns:xlink="http://www.w3.org/1999/xlink">
<path d="M16.777,64.488C19.699,64.488 22.284,63.954 24.532,62.886C26.78,61.762 28.494,60.076 29.675,57.828L29.675,63.476L41.476,63.476L41.476,17.449L28.832,17.449L28.832,44.34C28.832,46.982 28.045,49.117 26.471,50.747C24.898,52.321 22.874,53.108 20.402,53.108C17.929,53.108 15.906,52.321 14.332,50.747C12.759,49.117 11.972,46.982 11.972,44.34L11.972,17.449L-0.673,17.449L-0.673,45.352C-0.673,51.084 0.816,55.721 3.795,59.261C6.83,62.746 11.157,64.488 16.777,64.488Z" fill="#FFFFFF"/>
<path d="M50.718,13.318L63.363,13.318L63.363,0.674L50.718,0.674L50.718,13.318ZM50.718,63.476L63.363,63.476L63.363,17.449L50.718,17.449L50.718,63.476Z" fill="#FFFFFF"/>
<path d="M78.18,63.476L90.825,63.476L90.825,28.408L100.688,28.408L100.688,17.449L90.825,17.449L90.825,16.775C90.825,12.672 93.213,10.621 97.99,10.621C98.777,10.621 99.704,10.705 100.772,10.874L100.772,0.084C99.479,-0.197 97.99,-0.338 96.304,-0.338C90.572,-0.338 86.104,1.151 82.901,4.13C79.753,7.108 78.18,11.323 78.18,16.775L78.18,17.449L70.424,17.449L70.424,28.408L78.18,28.408L78.18,63.476Z" fill="#FFFFFF"/>
<path d="M107.192,63.476L119.837,63.476L119.837,38.692C119.837,35.264 120.792,32.623 122.703,30.768C124.613,28.858 127.114,27.902 130.205,27.902L134.167,27.902L134.167,16.943L131.47,16.943C128.66,16.943 126.159,17.477 123.967,18.545C121.832,19.557 120.174,21.496 118.994,24.362L118.994,17.449L107.192,17.449L107.192,63.476Z" fill="#FFFFFF"/>
<path d="M146.875,82.191C155.305,82.191 161.402,77.386 165.168,67.776L184.893,17.449L171.321,17.449L160.447,47.038L149.572,17.449L136,17.449L154.124,63.476L153.281,65.415C152.607,66.933 151.736,68.281 150.668,69.462C149.6,70.642 147.83,71.232 145.357,71.232C143.334,71.232 141.423,70.951 139.625,70.389L139.625,80.758C140.58,81.263 141.676,81.629 142.913,81.853C144.205,82.078 145.526,82.191 146.875,82.191Z" fill="#FFFFFF"/>
</svg>
