<svg width="52" height="64" viewBox="0 0 52 64" fill="none" xmlns="http://www.w3.org/2000/svg" xmlns:xlink="http://www.w3.org/1999/xlink">
<path d="M43.055,33.061C42.988,25.072 49.606,21.178 49.915,21.004C46.163,15.544 40.348,14.794 38.298,14.741C33.408,14.232 28.679,17.658 26.187,17.658C23.654,17.658 19.822,14.794 15.682,14.875C10.363,14.955 5.393,18.033 2.673,22.797C-2.954,32.526 1.239,46.818 6.639,54.687C9.332,58.541 12.48,62.837 16.607,62.69C20.64,62.529 22.154,60.12 27.017,60.12C31.841,60.12 33.261,62.69 37.468,62.596C41.795,62.529 44.529,58.729 47.128,54.848C50.25,50.432 51.496,46.082 51.549,45.868C51.442,45.801 43.135,42.63 43.055,33.061ZM35.11,9.562C37.28,6.845 38.767,3.165 38.352,-0.582C35.217,-0.448 31.278,1.586 29.027,4.236C27.031,6.578 25.235,10.405 25.704,14.005C29.214,14.259 32.845,12.225 35.11,9.562Z" fill="#000000"/>
</svg>
